<?xml version="1.0" encoding="UTF-8" standalone="no"?>
<!DOCTYPE svg PUBLIC "-//W3C//DTD SVG 1.1//EN"
 "http://www.w3.org/Graphics/SVG/1.1/DTD/svg11.dtd">
<!-- Generated by graphviz version 2.50.0 (0)
 -->
<!-- Pages: 1 -->
<svg width="350pt" height="227pt"
 viewBox="0.00 0.00 350.14 227.00" xmlns="http://www.w3.org/2000/svg" xmlns:xlink="http://www.w3.org/1999/xlink">
<g id="graph0" class="graph" transform="scale(1 1) rotate(0) translate(4 223)">
<polygon fill="white" stroke="transparent" points="-4,4 -4,-223 346.14,-223 346.14,4 -4,4"/>
<g id="clust1" class="cluster">
<title>cluster_samples</title>
<polygon fill="none" stroke="black" points="140.35,-8 140.35,-83 215.35,-83 215.35,-8 140.35,-8"/>
<text text-anchor="middle" x="177.85" y="-15.8" font-family="Times,serif" font-size="14.00">samples</text>
</g>
<!-- m_mu -->
<g id="node1" class="node">
<title>m_mu</title>
<ellipse fill="white" stroke="black" cx="38.35" cy="-201" rx="38.19" ry="18"/>
<text text-anchor="middle" x="38.35" y="-197.3" font-family="Times,serif" font-size="14.00">m_mu</text>
</g>
<!-- m -->
<g id="node5" class="node">
<title>m</title>
<ellipse fill="white" stroke="black" cx="132.35" cy="-129" rx="27" ry="18"/>
<text text-anchor="middle" x="132.35" y="-125.3" font-family="Times,serif" font-size="14.00">m</text>
</g>
<!-- m_mu&#45;&gt;m -->
<g id="edge1" class="edge">
<title>m_mu&#45;&gt;m</title>
<path fill="none" stroke="black" d="M58.28,-185.15C72.47,-174.59 91.65,-160.31 106.93,-148.92"/>
<polygon fill="black" stroke="black" points="109.04,-151.72 114.97,-142.94 104.86,-146.11 109.04,-151.72"/>
</g>
<!-- m_sig -->
<g id="node2" class="node">
<title>m_sig</title>
<ellipse fill="white" stroke="black" cx="132.35" cy="-201" rx="37.89" ry="18"/>
<text text-anchor="middle" x="132.35" y="-197.3" font-family="Times,serif" font-size="14.00">m_sig</text>
</g>
<!-- m_sig&#45;&gt;m -->
<g id="edge2" class="edge">
<title>m_sig&#45;&gt;m</title>
<path fill="none" stroke="black" d="M132.35,-182.7C132.35,-174.98 132.35,-165.71 132.35,-157.11"/>
<polygon fill="black" stroke="black" points="135.85,-157.1 132.35,-147.1 128.85,-157.1 135.85,-157.1"/>
</g>
<!-- c_mu -->
<g id="node3" class="node">
<title>c_mu</title>
<ellipse fill="white" stroke="black" cx="222.35" cy="-201" rx="34.39" ry="18"/>
<text text-anchor="middle" x="222.35" y="-197.3" font-family="Times,serif" font-size="14.00">c_mu</text>
</g>
<!-- c -->
<g id="node6" class="node">
<title>c</title>
<ellipse fill="white" stroke="black" cx="222.35" cy="-129" rx="27" ry="18"/>
<text text-anchor="middle" x="222.35" y="-125.3" font-family="Times,serif" font-size="14.00">c</text>
</g>
<!-- c_mu&#45;&gt;c -->
<g id="edge3" class="edge">
<title>c_mu&#45;&gt;c</title>
<path fill="none" stroke="black" d="M222.35,-182.7C222.35,-174.98 222.35,-165.71 222.35,-157.11"/>
<polygon fill="black" stroke="black" points="225.85,-157.1 222.35,-147.1 218.85,-157.1 225.85,-157.1"/>
</g>
<!-- c_sig -->
<g id="node4" class="node">
<title>c_sig</title>
<ellipse fill="white" stroke="black" cx="308.35" cy="-201" rx="33.6" ry="18"/>
<text text-anchor="middle" x="308.35" y="-197.3" font-family="Times,serif" font-size="14.00">c_sig</text>
</g>
<!-- c_sig&#45;&gt;c -->
<g id="edge4" class="edge">
<title>c_sig&#45;&gt;c</title>
<path fill="none" stroke="black" d="M290.53,-185.5C277.86,-175.19 260.69,-161.21 246.75,-149.86"/>
<polygon fill="black" stroke="black" points="248.94,-147.13 238.98,-143.54 244.52,-152.56 248.94,-147.13"/>
</g>
<!-- y -->
<g id="node7" class="node">
<title>y</title>
<ellipse fill="grey" stroke="black" cx="177.35" cy="-57" rx="27" ry="18"/>
<text text-anchor="middle" x="177.35" y="-53.3" font-family="Times,serif" font-size="14.00">y</text>
</g>
<!-- m&#45;&gt;y -->
<g id="edge5" class="edge">
<title>m&#45;&gt;y</title>
<path fill="none" stroke="black" d="M142.56,-112.12C148.2,-103.34 155.32,-92.26 161.65,-82.42"/>
<polygon fill="black" stroke="black" points="164.71,-84.13 167.18,-73.82 158.82,-80.34 164.71,-84.13"/>
</g>
<!-- c&#45;&gt;y -->
<g id="edge6" class="edge">
<title>c&#45;&gt;y</title>
<path fill="none" stroke="black" d="M212.14,-112.12C206.5,-103.34 199.37,-92.26 193.04,-82.42"/>
<polygon fill="black" stroke="black" points="195.87,-80.34 187.52,-73.82 189.98,-84.13 195.87,-80.34"/>
</g>
</g>
</svg>
