<?xml version="1.0" encoding="UTF-8" standalone="no"?>
<!DOCTYPE svg PUBLIC "-//W3C//DTD SVG 1.1//EN"
 "http://www.w3.org/Graphics/SVG/1.1/DTD/svg11.dtd">
<!-- Generated by graphviz version 2.50.0 (0)
 -->
<!-- Pages: 1 -->
<svg width="409pt" height="318pt"
 viewBox="0.00 0.00 409.10 318.00" xmlns="http://www.w3.org/2000/svg" xmlns:xlink="http://www.w3.org/1999/xlink">
<g id="graph0" class="graph" transform="scale(1 1) rotate(0) translate(4 314)">
<polygon fill="white" stroke="transparent" points="-4,4 -4,-314 405.1,-314 405.1,4 -4,4"/>
<g id="clust1" class="cluster">
<title>cluster_clusters</title>
<polygon fill="none" stroke="black" points="273.1,-83 273.1,-302 393.1,-302 393.1,-83 273.1,-83"/>
<text text-anchor="middle" x="356.1" y="-90.8" font-family="Times,serif" font-size="14.00">clusters</text>
</g>
<g id="clust2" class="cluster">
<title>cluster_stars</title>
<polygon fill="none" stroke="black" points="23.1,-8 23.1,-230 253.1,-230 253.1,-8 23.1,-8"/>
<text text-anchor="middle" x="226.6" y="-15.8" font-family="Times,serif" font-size="14.00">stars</text>
</g>
<!-- slope -->
<g id="node1" class="node">
<title>slope</title>
<ellipse fill="white" stroke="black" cx="35.1" cy="-276" rx="35.19" ry="18"/>
<text text-anchor="middle" x="35.1" y="-272.3" font-family="Times,serif" font-size="14.00">slope</text>
</g>
<!-- absolute_magnitude -->
<g id="node7" class="node">
<title>absolute_magnitude</title>
<ellipse fill="white" stroke="black" cx="137.1" cy="-204" rx="104.78" ry="18"/>
<text text-anchor="middle" x="137.1" y="-200.3" font-family="Times,serif" font-size="14.00">absolute_magnitude</text>
</g>
<!-- slope&#45;&gt;absolute_magnitude -->
<g id="edge3" class="edge">
<title>slope&#45;&gt;absolute_magnitude</title>
<path fill="none" stroke="black" d="M55.25,-261.17C69.16,-251.62 87.98,-238.71 104.06,-227.67"/>
<polygon fill="black" stroke="black" points="106.4,-230.31 112.67,-221.76 102.44,-224.54 106.4,-230.31"/>
</g>
<!-- offset -->
<g id="node2" class="node">
<title>offset</title>
<ellipse fill="white" stroke="black" cx="124.1" cy="-276" rx="36.29" ry="18"/>
<text text-anchor="middle" x="124.1" y="-272.3" font-family="Times,serif" font-size="14.00">offset</text>
</g>
<!-- offset&#45;&gt;absolute_magnitude -->
<g id="edge4" class="edge">
<title>offset&#45;&gt;absolute_magnitude</title>
<path fill="none" stroke="black" d="M127.24,-258.05C128.68,-250.35 130.41,-241.03 132.01,-232.36"/>
<polygon fill="black" stroke="black" points="135.5,-232.75 133.89,-222.28 128.62,-231.47 135.5,-232.75"/>
</g>
<!-- spread -->
<g id="node3" class="node">
<title>spread</title>
<ellipse fill="white" stroke="black" cx="221.1" cy="-276" rx="42.49" ry="18"/>
<text text-anchor="middle" x="221.1" y="-272.3" font-family="Times,serif" font-size="14.00">spread</text>
</g>
<!-- spread&#45;&gt;absolute_magnitude -->
<g id="edge5" class="edge">
<title>spread&#45;&gt;absolute_magnitude</title>
<path fill="none" stroke="black" d="M202.45,-259.46C191.43,-250.28 177.26,-238.47 164.94,-228.2"/>
<polygon fill="black" stroke="black" points="167.08,-225.43 157.15,-221.71 162.6,-230.8 167.08,-225.43"/>
</g>
<!-- root_dist -->
<g id="node4" class="node">
<title>root_dist</title>
<ellipse fill="white" stroke="black" cx="333.1" cy="-276" rx="51.99" ry="18"/>
<text text-anchor="middle" x="333.1" y="-272.3" font-family="Times,serif" font-size="14.00">root_dist</text>
</g>
<!-- distance -->
<g id="node5" class="node">
<title>distance</title>
<ellipse fill="white" stroke="black" stroke-dasharray="5,2" cx="332.1" cy="-204" rx="50.09" ry="18"/>
<text text-anchor="middle" x="332.1" y="-200.3" font-family="Times,serif" font-size="14.00">distance</text>
</g>
<!-- root_dist&#45;&gt;distance -->
<g id="edge1" class="edge">
<title>root_dist&#45;&gt;distance</title>
<path fill="none" stroke="black" d="M332.85,-257.7C332.74,-249.98 332.61,-240.71 332.48,-232.11"/>
<polygon fill="black" stroke="black" points="335.98,-232.05 332.34,-222.1 328.98,-232.15 335.98,-232.05"/>
</g>
<!-- parallax -->
<g id="node6" class="node">
<title>parallax</title>
<ellipse fill="grey" stroke="black" cx="332.1" cy="-132" rx="48.19" ry="18"/>
<text text-anchor="middle" x="332.1" y="-128.3" font-family="Times,serif" font-size="14.00">parallax</text>
</g>
<!-- distance&#45;&gt;parallax -->
<g id="edge2" class="edge">
<title>distance&#45;&gt;parallax</title>
<path fill="none" stroke="black" d="M332.1,-185.7C332.1,-177.98 332.1,-168.71 332.1,-160.11"/>
<polygon fill="black" stroke="black" points="335.6,-160.1 332.1,-150.1 328.6,-160.1 335.6,-160.1"/>
</g>
<!-- apparent_magnitude -->
<g id="node8" class="node">
<title>apparent_magnitude</title>
<ellipse fill="white" stroke="black" stroke-dasharray="5,2" cx="138.1" cy="-132" rx="106.68" ry="18"/>
<text text-anchor="middle" x="138.1" y="-128.3" font-family="Times,serif" font-size="14.00">apparent_magnitude</text>
</g>
<!-- distance&#45;&gt;apparent_magnitude -->
<g id="edge6" class="edge">
<title>distance&#45;&gt;apparent_magnitude</title>
<path fill="none" stroke="black" d="M297.86,-190.65C268.26,-179.97 224.99,-164.35 190.94,-152.07"/>
<polygon fill="black" stroke="black" points="191.75,-148.64 181.15,-148.54 189.37,-155.22 191.75,-148.64"/>
</g>
<!-- absolute_magnitude&#45;&gt;apparent_magnitude -->
<g id="edge7" class="edge">
<title>absolute_magnitude&#45;&gt;apparent_magnitude</title>
<path fill="none" stroke="black" d="M137.34,-185.7C137.45,-177.98 137.59,-168.71 137.71,-160.11"/>
<polygon fill="black" stroke="black" points="141.21,-160.15 137.85,-150.1 134.21,-160.05 141.21,-160.15"/>
</g>
<!-- fluxcounts -->
<g id="node9" class="node">
<title>fluxcounts</title>
<ellipse fill="grey" stroke="black" cx="138.1" cy="-57" rx="58.49" ry="18"/>
<text text-anchor="middle" x="138.1" y="-53.3" font-family="Times,serif" font-size="14.00">fluxcounts</text>
</g>
<!-- apparent_magnitude&#45;&gt;fluxcounts -->
<g id="edge8" class="edge">
<title>apparent_magnitude&#45;&gt;fluxcounts</title>
<path fill="none" stroke="black" d="M138.1,-113.7C138.1,-105.25 138.1,-94.87 138.1,-85.37"/>
<polygon fill="black" stroke="black" points="141.6,-85.18 138.1,-75.18 134.6,-85.18 141.6,-85.18"/>
</g>
</g>
</svg>
