<?xml version="1.0" encoding="UTF-8" standalone="no"?>
<!DOCTYPE svg PUBLIC "-//W3C//DTD SVG 1.1//EN"
 "http://www.w3.org/Graphics/SVG/1.1/DTD/svg11.dtd">
<!-- Generated by graphviz version 2.43.0 (0)
 -->
<!-- Title: %3 Pages: 1 -->
<svg width="184pt" height="227pt"
 viewBox="0.00 0.00 183.64 227.00" xmlns="http://www.w3.org/2000/svg" xmlns:xlink="http://www.w3.org/1999/xlink">
<g id="graph0" class="graph" transform="scale(1 1) rotate(0) translate(4 223)">
<title>%3</title>
<polygon fill="white" stroke="transparent" points="-4,4 -4,-223 179.64,-223 179.64,4 -4,4"/>
<g id="clust1" class="cluster">
<title>cluster_data</title>
<polygon fill="none" stroke="black" points="37.4,-8 37.4,-83 107.4,-83 107.4,-8 37.4,-8"/>
<text text-anchor="middle" x="83.4" y="-15.8" font-family="Times,serif" font-size="14.00">data</text>
</g>
<!-- angle -->
<g id="node1" class="node">
<title>angle</title>
<ellipse fill="white" stroke="black" cx="36.4" cy="-201" rx="36.29" ry="18"/>
<text text-anchor="middle" x="36.4" y="-197.3" font-family="Times,serif" font-size="14.00">angle</text>
</g>
<!-- m -->
<g id="node3" class="node">
<title>m</title>
<ellipse fill="white" stroke="black" stroke-dasharray="5,2" cx="36.4" cy="-129" rx="27" ry="18"/>
<text text-anchor="middle" x="36.4" y="-125.3" font-family="Times,serif" font-size="14.00">m</text>
</g>
<!-- angle&#45;&gt;m -->
<g id="edge1" class="edge">
<title>angle&#45;&gt;m</title>
<path fill="none" stroke="black" d="M36.4,-182.7C36.4,-174.98 36.4,-165.71 36.4,-157.11"/>
<polygon fill="black" stroke="black" points="39.9,-157.1 36.4,-147.1 32.9,-157.1 39.9,-157.1"/>
</g>
<!-- c -->
<g id="node4" class="node">
<title>c</title>
<ellipse fill="white" stroke="black" stroke-dasharray="5,2" cx="108.4" cy="-129" rx="27" ry="18"/>
<text text-anchor="middle" x="108.4" y="-125.3" font-family="Times,serif" font-size="14.00">c</text>
</g>
<!-- angle&#45;&gt;c -->
<g id="edge2" class="edge">
<title>angle&#45;&gt;c</title>
<path fill="none" stroke="black" d="M52.38,-184.46C62.34,-174.78 75.3,-162.17 86.25,-151.53"/>
<polygon fill="black" stroke="black" points="88.72,-154.02 93.45,-144.54 83.84,-149 88.72,-154.02"/>
</g>
<!-- b_perp -->
<g id="node2" class="node">
<title>b_perp</title>
<ellipse fill="white" stroke="black" cx="133.4" cy="-201" rx="42.49" ry="18"/>
<text text-anchor="middle" x="133.4" y="-197.3" font-family="Times,serif" font-size="14.00">b_perp</text>
</g>
<!-- b_perp&#45;&gt;c -->
<g id="edge3" class="edge">
<title>b_perp&#45;&gt;c</title>
<path fill="none" stroke="black" d="M127.34,-183.05C124.49,-175.06 121.01,-165.33 117.83,-156.4"/>
<polygon fill="black" stroke="black" points="121.05,-155.03 114.39,-146.79 114.46,-157.38 121.05,-155.03"/>
</g>
<!-- y -->
<g id="node5" class="node">
<title>y</title>
<ellipse fill="grey" stroke="black" cx="72.4" cy="-57" rx="27" ry="18"/>
<text text-anchor="middle" x="72.4" y="-53.3" font-family="Times,serif" font-size="14.00">y</text>
</g>
<!-- m&#45;&gt;y -->
<g id="edge4" class="edge">
<title>m&#45;&gt;y</title>
<path fill="none" stroke="black" d="M44.75,-111.76C49.11,-103.28 54.54,-92.71 59.44,-83.2"/>
<polygon fill="black" stroke="black" points="62.63,-84.64 64.09,-74.15 56.41,-81.44 62.63,-84.64"/>
</g>
<!-- c&#45;&gt;y -->
<g id="edge5" class="edge">
<title>c&#45;&gt;y</title>
<path fill="none" stroke="black" d="M100.05,-111.76C95.69,-103.28 90.25,-92.71 85.36,-83.2"/>
<polygon fill="black" stroke="black" points="88.39,-81.44 80.7,-74.15 82.16,-84.64 88.39,-81.44"/>
</g>
</g>
</svg>
