<?xml version="1.0" encoding="UTF-8" standalone="no"?>
<!DOCTYPE svg PUBLIC "-//W3C//DTD SVG 1.1//EN"
 "http://www.w3.org/Graphics/SVG/1.1/DTD/svg11.dtd">
<!-- Generated by graphviz version 2.43.0 (0)
 -->
<!-- Title: %3 Pages: 1 -->
<svg width="134pt" height="155pt"
 viewBox="0.00 0.00 134.00 155.00" xmlns="http://www.w3.org/2000/svg" xmlns:xlink="http://www.w3.org/1999/xlink">
<g id="graph0" class="graph" transform="scale(1 1) rotate(0) translate(4 151)">
<title>%3</title>
<polygon fill="white" stroke="transparent" points="-4,4 -4,-151 130,-151 130,4 -4,4"/>
<g id="clust1" class="cluster">
<title>cluster_data</title>
<polygon fill="none" stroke="black" points="28,-8 28,-83 98,-83 98,-8 28,-8"/>
<text text-anchor="middle" x="74" y="-15.8" font-family="Times,serif" font-size="14.00">data</text>
</g>
<!-- m -->
<g id="node1" class="node">
<title>m</title>
<ellipse fill="white" stroke="black" cx="27" cy="-129" rx="27" ry="18"/>
<text text-anchor="middle" x="27" y="-125.3" font-family="Times,serif" font-size="14.00">m</text>
</g>
<!-- y -->
<g id="node3" class="node">
<title>y</title>
<ellipse fill="grey" stroke="black" cx="63" cy="-57" rx="27" ry="18"/>
<text text-anchor="middle" x="63" y="-53.3" font-family="Times,serif" font-size="14.00">y</text>
</g>
<!-- m&#45;&gt;y -->
<g id="edge1" class="edge">
<title>m&#45;&gt;y</title>
<path fill="none" stroke="black" d="M35.35,-111.76C39.71,-103.28 45.15,-92.71 50.04,-83.2"/>
<polygon fill="black" stroke="black" points="53.23,-84.64 54.7,-74.15 47.01,-81.44 53.23,-84.64"/>
</g>
<!-- c -->
<g id="node2" class="node">
<title>c</title>
<ellipse fill="white" stroke="black" cx="99" cy="-129" rx="27" ry="18"/>
<text text-anchor="middle" x="99" y="-125.3" font-family="Times,serif" font-size="14.00">c</text>
</g>
<!-- c&#45;&gt;y -->
<g id="edge2" class="edge">
<title>c&#45;&gt;y</title>
<path fill="none" stroke="black" d="M90.65,-111.76C86.29,-103.28 80.85,-92.71 75.96,-83.2"/>
<polygon fill="black" stroke="black" points="78.99,-81.44 71.3,-74.15 72.77,-84.64 78.99,-81.44"/>
</g>
</g>
</svg>
