<?xml version="1.0" encoding="UTF-8" standalone="no"?>
<!DOCTYPE svg PUBLIC "-//W3C//DTD SVG 1.1//EN"
 "http://www.w3.org/Graphics/SVG/1.1/DTD/svg11.dtd">
<!-- Generated by graphviz version 2.50.0 (0)
 -->
<!-- Pages: 1 -->
<svg width="231pt" height="227pt"
 viewBox="0.00 0.00 231.40 227.00" xmlns="http://www.w3.org/2000/svg" xmlns:xlink="http://www.w3.org/1999/xlink">
<g id="graph0" class="graph" transform="scale(1 1) rotate(0) translate(4 223)">
<polygon fill="white" stroke="transparent" points="-4,4 -4,-223 227.4,-223 227.4,4 -4,4"/>
<g id="clust1" class="cluster">
<title>cluster_data</title>
<polygon fill="none" stroke="black" points="145.4,-8 145.4,-155 215.4,-155 215.4,-8 145.4,-8"/>
<text text-anchor="middle" x="191.4" y="-15.8" font-family="Times,serif" font-size="14.00">data</text>
</g>
<!-- angle -->
<g id="node1" class="node">
<title>angle</title>
<ellipse fill="white" stroke="black" cx="36.4" cy="-201" rx="36.29" ry="18"/>
<text text-anchor="middle" x="36.4" y="-197.3" font-family="Times,serif" font-size="14.00">angle</text>
</g>
<!-- m -->
<g id="node3" class="node">
<title>m</title>
<ellipse fill="white" stroke="black" stroke-dasharray="5,2" cx="36.4" cy="-129" rx="27" ry="18"/>
<text text-anchor="middle" x="36.4" y="-125.3" font-family="Times,serif" font-size="14.00">m</text>
</g>
<!-- angle&#45;&gt;m -->
<g id="edge1" class="edge">
<title>angle&#45;&gt;m</title>
<path fill="none" stroke="black" d="M36.4,-182.7C36.4,-174.98 36.4,-165.71 36.4,-157.11"/>
<polygon fill="black" stroke="black" points="39.9,-157.1 36.4,-147.1 32.9,-157.1 39.9,-157.1"/>
</g>
<!-- c -->
<g id="node4" class="node">
<title>c</title>
<ellipse fill="white" stroke="black" stroke-dasharray="5,2" cx="108.4" cy="-129" rx="27" ry="18"/>
<text text-anchor="middle" x="108.4" y="-125.3" font-family="Times,serif" font-size="14.00">c</text>
</g>
<!-- angle&#45;&gt;c -->
<g id="edge2" class="edge">
<title>angle&#45;&gt;c</title>
<path fill="none" stroke="black" d="M52.38,-184.46C62.34,-174.78 75.3,-162.17 86.25,-151.53"/>
<polygon fill="black" stroke="black" points="88.72,-154.02 93.45,-144.54 83.84,-149 88.72,-154.02"/>
</g>
<!-- b_perp -->
<g id="node2" class="node">
<title>b_perp</title>
<ellipse fill="white" stroke="black" cx="133.4" cy="-201" rx="42.49" ry="18"/>
<text text-anchor="middle" x="133.4" y="-197.3" font-family="Times,serif" font-size="14.00">b_perp</text>
</g>
<!-- b_perp&#45;&gt;c -->
<g id="edge3" class="edge">
<title>b_perp&#45;&gt;c</title>
<path fill="none" stroke="black" d="M127.34,-183.05C124.49,-175.06 121.01,-165.33 117.83,-156.4"/>
<polygon fill="black" stroke="black" points="121.05,-155.03 114.39,-146.79 114.46,-157.38 121.05,-155.03"/>
</g>
<!-- y -->
<g id="node6" class="node">
<title>y</title>
<ellipse fill="grey" stroke="black" cx="180.4" cy="-57" rx="27" ry="18"/>
<text text-anchor="middle" x="180.4" y="-53.3" font-family="Times,serif" font-size="14.00">y</text>
</g>
<!-- m&#45;&gt;y -->
<g id="edge4" class="edge">
<title>m&#45;&gt;y</title>
<path fill="none" stroke="black" d="M57.64,-117.67C82,-105.83 122.12,-86.33 149.82,-72.86"/>
<polygon fill="black" stroke="black" points="151.6,-75.89 159.06,-68.37 148.54,-69.6 151.6,-75.89"/>
</g>
<!-- c&#45;&gt;y -->
<g id="edge5" class="edge">
<title>c&#45;&gt;y</title>
<path fill="none" stroke="black" d="M122.97,-113.83C133.15,-103.94 146.92,-90.55 158.43,-79.36"/>
<polygon fill="black" stroke="black" points="160.87,-81.87 165.6,-72.38 155.99,-76.85 160.87,-81.87"/>
</g>
<!-- x -->
<g id="node5" class="node">
<title>x</title>
<ellipse fill="white" stroke="black" cx="180.4" cy="-129" rx="27" ry="18"/>
<text text-anchor="middle" x="180.4" y="-125.3" font-family="Times,serif" font-size="14.00">x</text>
</g>
<!-- x&#45;&gt;y -->
<g id="edge6" class="edge">
<title>x&#45;&gt;y</title>
<path fill="none" stroke="black" d="M180.4,-110.7C180.4,-102.98 180.4,-93.71 180.4,-85.11"/>
<polygon fill="black" stroke="black" points="183.9,-85.1 180.4,-75.1 176.9,-85.1 183.9,-85.1"/>
</g>
</g>
</svg>
